PathFileType	4	(X/Y/Z)	/Users/itak/Documents/Research/Walk-IL/dataset/trc/00132_00007.trc
DataRate	CameraRate	NumFrames	NumMarkers	Units	OrigDataRate	OrigDataStartFrame	OrigNumFrames
100.000000	100.000000	4	53	mm	100.000000	0	747
Frame#	Time	RPSI			LPSI			L3			STRN			T10			C7			CLAV			RBAK			LBAK			LSHO			LUPA			LAEL			LAOL			LWTS			LWPS			LFRA			LIFD			LHPS			LHTS			RSHO			RUPA			RAEL			RAOL			RWTS			RWPS			RFRA			RIFD			RHTS			RHPS			RBHD			LFHD			RFHD			LBHD			LHIP			RHIP			RASI			LASI			LKNE			LTHI			LANK			LTIP			LTOE			LMT1			LMT5			LHEE			RKNE			RTHI			RANK			RTIP			RTOE			RMT1			RMT5			RHEE			
		X1	Y1	Z1	X2	Y2	Z2	X3	Y3	Z3	X4	Y4	Z4	X5	Y5	Z5	X6	Y6	Z6	X7	Y7	Z7	X8	Y8	Z8	X9	Y9	Z9	X10	Y10	Z10	X11	Y11	Z11	X12	Y12	Z12	X13	Y13	Z13	X14	Y14	Z14	X15	Y15	Z15	X16	Y16	Z16	X17	Y17	Z17	X18	Y18	Z18	X19	Y19	Z19	X20	Y20	Z20	X21	Y21	Z21	X22	Y22	Z22	X23	Y23	Z23	X24	Y24	Z24	X25	Y25	Z25	X26	Y26	Z26	X27	Y27	Z27	X28	Y28	Z28	X29	Y29	Z29	X30	Y30	Z30	X31	Y31	Z31	X32	Y32	Z32	X33	Y33	Z33	X34	Y34	Z34	X35	Y35	Z35	X36	Y36	Z36	X37	Y37	Z37	X38	Y38	Z38	X39	Y39	Z39	X40	Y40	Z40	X41	Y41	Z41	X42	Y42	Z42	X43	Y43	Z43	X44	Y44	Z44	X45	Y45	Z45	X46	Y46	Z46	X47	Y47	Z47	X48	Y48	Z48	X49	Y49	Z49	X50	Y50	Z50	X51	Y51	Z51	X52	Y52	Z52	X53	Y53	Z53	

1	0	352.2201232910156	1131.054443359375	1077.546997070312	355.7059631347656	1133.224853515625	1211.754516601562	360.5778503417969	1162.038696289062	1145.950073242188	155.6082000732422	1364.857666015625	1149.880981445312	405.6936950683594	1308.952270507812	1144.964477539062	383.9385375976562	1601.730102539062	1155.78125	196.2783355712891	1498.828369140625	1151.032958984375	429.4590759277344	1415.06787109375	1070.457275390625	391.9153137207031	1581.5576171875	1257.19384765625	307.5751647949219	1573.021850585938	1328.496337890625	328.3824768066406	1439.790771484375	1397.579956054688	316.0247802734375	1222.152954101562	1418.8955078125	374.5623779296875	1207.3935546875	1355.085205078125	202.5513916015625	968.1038818359375	1384.818969726562	283.9074401855469	938.9096069335938	1401.60546875	295.7334594726562	1105.513793945312	1423.335327148438	179.8320770263672	776.7188110351562	1358.64306640625	252.4856414794922	865.1962280273438	1404.733032226562	183.6433410644531	878.505859375	1395.686767578125	324.9510498046875	1581.696655273438	974.6380615234375	341.9654541015625	1507.016479492188	912.4486694335938	354.5975646972656	1211.23974609375	902.0287475585938	360.5692443847656	1213.883544921875	998.3909912109375	204.6047058105469	973.77392578125	920.2833862304688	280.4622192382812	952.500732421875	893.47314453125	330.7987365722656	1137.714599609375	888.8912963867188	168.3397674560547	782.54052734375	937.9854125976562	168.6576080322266	867.9391479492188	913.1211547851562	237.8478698730469	855.4236450195312	888.0536499023438	351.7813415527344	1775.276000976562	1076.342041015625	195.4333343505859	1849.2998046875	1214.42724609375	190.6897735595703	1854.3876953125	1085.184448242188	362.5419311523438	1773.884521484375	1211.324340820312	267.9632263183594	1044.07861328125	1320.389526367188	223.9169769287109	1031.79150390625	963.0897216796875	143.0209350585938	1106.090209960938	1015.724914550781	157.7024688720703	1108.972412109375	1282.564453125	255.5365753173828	541.5799560546875	1288.328247070312	273.6107788085938	689.3195190429688	1316.40283203125	380.0458984375	44.73601150512695	1272.655883789062	362.1979675292969	297.4617919921875	1309.173950195312	146.7964172363281	41.66776657104492	1217.371215820312	228.1789398193359	44.95571899414062	1182.3681640625	255.2423553466797	41.03855133056641	1297.733764648438	447.5451049804688	44.55888748168945	1209.592041015625	258.3744201660156	540.7051391601562	1005.45703125	217.3653411865234	818.9660034179688	974.381591796875	367.6676025390625	32.83581924438477	1036.729858398438	288.5216369628906	409.5739135742188	997.436767578125	138.4578094482422	49.07249069213867	1096.677124023438	198.8594360351562	38.44716644287109	1138.775512695312	233.7404937744141	42.23586654663086	1020.663330078125	427.0576782226562	35.92502593994141	1082.443115234375	
2	0.01	352.3513793945312	1131.072631835938	1077.6025390625	355.7620239257812	1133.229614257812	1211.8125	360.6253356933594	1162.046752929688	1146.022583007812	155.7012023925781	1364.866577148438	1149.882202148438	405.7818603515625	1308.9580078125	1145.047729492188	384.0125732421875	1601.737182617188	1155.837646484375	196.3662414550781	1498.858764648438	1151.057861328125	429.5690002441406	1415.074096679688	1070.544067382812	391.9748229980469	1581.56201171875	1257.255493164062	307.6061401367188	1573.03759765625	1328.536254882812	328.3958129882812	1439.803955078125	1397.631225585938	315.998046875	1222.151977539062	1418.907592773438	374.5411376953125	1207.395751953125	1355.111572265625	202.4186706542969	968.0868530273438	1384.707275390625	283.8914184570312	938.9110717773438	1401.57666015625	295.7001647949219	1105.516723632812	1423.33251953125	179.8308258056641	776.7157592773438	1358.576904296875	252.4594116210938	865.1906127929688	1404.680053710938	183.6219940185547	878.5169677734375	1395.635009765625	325.0810241699219	1581.694580078125	974.6768798828125	342.129150390625	1507.00927734375	912.4999389648438	354.7769165039062	1211.228759765625	902.1331176757812	360.7854309082031	1213.891723632812	998.50048828125	204.7470245361328	973.7556762695312	920.3675537109375	280.6136474609375	952.4945068359375	893.5892944335938	330.9538269042969	1137.707275390625	889.0050048828125	168.525634765625	782.5169067382812	938.16650390625	168.8812103271484	867.923095703125	913.2625732421875	238.0319671630859	855.4014892578125	888.2247314453125	352.0382690429688	1775.266723632812	1076.449096679688	195.6344299316406	1849.319213867188	1214.386108398438	191.0146789550781	1854.44189453125	1085.112426757812	362.6496887207031	1773.835693359375	1211.396362304688	268.00537109375	1044.083618164062	1320.419677734375	224.0083618164062	1031.817138671875	963.0692138671875	143.1247406005859	1106.102294921875	1015.719116210938	157.7237091064453	1108.979248046875	1282.56884765625	255.5899658203125	541.58203125	1288.339477539062	273.6417846679688	689.3152465820312	1316.421508789062	380.0502319335938	44.73539733886719	1272.659912109375	362.2162780761719	297.4505615234375	1309.181274414062	146.8004913330078	41.66907119750977	1217.365112304688	228.1800842285156	44.95183944702148	1182.36328125	255.2442932128906	41.04005432128906	1297.734252929688	447.5533752441406	44.55361938476562	1209.603881835938	258.3758239746094	540.7106323242188	1005.491271972656	217.4592132568359	818.9829711914062	974.410888671875	367.6667175292969	32.83522415161133	1036.730102539062	288.4888916015625	409.5675964355469	997.4415893554688	138.4615173339844	49.06312942504883	1096.68359375	198.8595733642578	38.44002151489258	1138.787231445312	233.7380981445312	42.23716735839844	1020.667175292969	427.0649719238281	35.9461669921875	1082.446044921875	
3	0.02	352.5128784179688	1131.093383789062	1077.674438476562	355.8272399902344	1133.233764648438	1211.887084960938	360.673828125	1162.052856445312	1146.113525390625	155.8114471435547	1364.878662109375	1149.885375976562	405.8875122070312	1308.96240234375	1145.154541015625	384.1059265136719	1601.744995117188	1155.911254882812	196.4762268066406	1498.893676757812	1151.091918945312	429.7047424316406	1415.080078125	1070.65576171875	392.0457458496094	1581.566650390625	1257.337646484375	307.6394348144531	1573.054077148438	1328.588500976562	328.4054870605469	1439.815307617188	1397.695434570312	315.9545593261719	1222.144897460938	1418.918823242188	374.5087585449219	1207.39599609375	1355.146728515625	202.2660064697266	968.0586547851562	1384.5654296875	283.8721618652344	938.9071044921875	1401.53857421875	295.6514892578125	1105.511962890625	1423.325927734375	179.8399505615234	776.6995849609375	1358.48828125	252.4355773925781	865.1749877929688	1404.610595703125	183.6059417724609	878.5201416015625	1395.562255859375	325.2468566894531	1581.6904296875	974.7286376953125	342.3285522460938	1506.999267578125	912.5668334960938	354.9950561523438	1211.211791992188	902.2653198242188	361.04052734375	1213.899536132812	998.6403198242188	204.9405517578125	973.7306518554688	920.47900390625	280.8131103515625	952.4820556640625	893.7379760742188	331.1468811035156	1137.692993164062	889.1460571289062	168.7639770507812	782.4758911132812	938.3943481445312	169.162841796875	867.8932495117188	913.4400634765625	238.2654876708984	855.3643798828125	888.4380493164062	352.3578796386719	1775.250732421875	1076.5859375	195.8721313476562	1849.342407226562	1214.333984375	191.4315185546875	1854.511108398438	1085.022583007812	362.7869262695312	1773.771728515625	1211.50537109375	268.05615234375	1044.086791992188	1320.456420898438	224.1222991943359	1031.848510742188	963.0529174804688	143.249267578125	1106.116821289062	1015.713317871094	157.7508239746094	1108.985961914062	1282.575073242188	255.6517181396484	541.5816650390625	1288.351806640625	273.6836547851562	689.3079833984375	1316.44580078125	380.0565185546875	44.73249435424805	1272.6650390625	362.2374267578125	297.4365234375	1309.193359375	146.8054351806641	41.67128753662109	1217.359497070312	228.1830139160156	44.95055770874023	1182.35693359375	255.2463684082031	41.04151916503906	1297.734619140625	447.5617370605469	44.54692459106445	1209.616088867188	258.3849792480469	540.71728515625	1005.533203125	217.5747680664062	819.00244140625	974.4481811523438	367.6646728515625	32.83364105224609	1036.7294921875	288.4580383300781	409.5616149902344	997.44775390625	138.4651031494141	49.05270385742188	1096.6904296875	198.8600921630859	38.42944717407227	1138.802368164062	233.7344665527344	42.23930740356445	1020.672973632812	427.0711364746094	35.96517562866211	1082.4482421875	
4	0.03	352.6960144042969	1131.115356445312	1077.7607421875	355.8981018066406	1133.236083984375	1211.976196289062	360.7199096679688	1162.056030273438	1146.218627929688	155.9304351806641	1364.893432617188	1149.89111328125	406.0041198730469	1308.96435546875	1145.281616210938	384.2145690917969	1601.753051757812	1156.000854492188	196.6030731201172	1498.930419921875	1151.133911132812	429.8591613769531	1415.0849609375	1070.78955078125	392.1230773925781	1581.571044921875	1257.439086914062	307.670654296875	1573.0693359375	1328.652587890625	328.4083557128906	1439.822143554688	1397.76953125	315.8910522460938	1222.129150390625	1418.927368164062	374.4638671875	1207.393188476562	1355.1904296875	202.1096649169922	968.01708984375	1384.399658203125	283.8510131835938	938.894775390625	1401.491577148438	295.5859680175781	1105.496337890625	1423.315063476562	179.8643646240234	776.666259765625	1358.376586914062	252.4191589355469	865.1456909179688	1404.5263671875	183.6007232666016	878.5092163085938	1395.465942382812	325.4427490234375	1581.683471679688	974.7930297851562	342.5525817871094	1506.986206054688	912.6483154296875	355.2415771484375	1211.188842773438	902.4213256835938	361.3121032714844	1213.905029296875	998.804931640625	205.1829986572266	973.6985473632812	920.615234375	281.0585632324219	952.4620361328125	893.9144287109375	331.3710021972656	1137.671020507812	889.3093872070312	169.0531311035156	782.4139404296875	938.660400390625	169.4928436279297	867.8466186523438	913.645751953125	238.5423431396484	855.3096923828125	888.6842041015625	352.7251892089844	1775.22705078125	1076.747192382812	196.1292419433594	1849.368286132812	1214.273193359375	191.9235992431641	1854.592529296875	1084.920532226562	362.9494018554688	1773.69384765625	1211.654907226562	268.1130676269531	1044.087036132812	1320.497924804688	224.2560577392578	1031.884521484375	963.0457763671875	143.3866271972656	1106.13330078125	1015.708251953125	157.7823028564453	1108.991455078125	1282.583374023438	255.7171783447266	541.5781860351562	1288.365112304688	273.7348022460938	689.2973022460938	1316.47509765625	380.06494140625	44.7265510559082	1272.671142578125	362.2600708007812	297.4203186035156	1309.211303710938	146.8110504150391	41.67438125610352	1217.354736328125	228.1880340576172	44.95252227783203	1182.349487304688	255.2482452392578	41.0426139831543	1297.73486328125	447.5696716308594	44.5394172668457	1209.6279296875	258.4056396484375	540.72509765625	1005.580505371094	217.70703125	819.0228881835938	974.491943359375	367.6614379882812	32.83119964599609	1036.727783203125	288.4357299804688	409.5572204589844	997.454833984375	138.4683532714844	49.04211044311523	1096.697143554688	198.8612365722656	38.41581344604492	1138.81982421875	233.7297058105469	42.24257278442383	1020.6806640625	427.0753173828125	35.98001861572266	1082.448974609375	
